<svg width="214" height="116" viewBox="0 0 214 116" fill="none" xmlns="http://www.w3.org/2000/svg">
<path d="M152 45.4199H104.567C99.8217 45.4199 95.9734 41.5715 95.9734 36.8262V9.59367C95.9734 4.84834 99.8217 1 104.567 1H152C156.745 1 160.593 4.84834 160.593 9.59367V36.8262C160.6 41.5715 156.752 45.4199 152 45.4199Z" fill="#F0F0F0" stroke="#0F1214" stroke-miterlimit="10"/>
<path d="M63.5367 90.2782L17.1722 100.303C12.5296 101.31 7.95546 98.3583 6.95572 93.7156L1.19694 67.0925C0.190351 62.4499 3.14163 57.8757 7.78424 56.876L54.1488 46.8512C58.7914 45.8446 63.3655 48.7959 64.3653 53.4385L70.1241 80.0617C71.1238 84.6975 68.1793 89.2716 63.5367 90.2782Z" fill="#F0F0F0" stroke="#0F1214" stroke-miterlimit="10"/>
<path d="M1.00519 65.5514L64.0366 51.918" stroke="#0F1214" stroke-miterlimit="10"/>
<path d="M15.7685 59.7178C16.2601 59.7178 16.6586 59.3193 16.6586 58.8277C16.6586 58.336 16.2601 57.9375 15.7685 57.9375C15.2768 57.9375 14.8783 58.336 14.8783 58.8277C14.8783 59.3193 15.2768 59.7178 15.7685 59.7178Z" stroke="#0F1214" stroke-miterlimit="10"/>
<path d="M11.9202 60.5538C12.4118 60.5538 12.8103 60.1552 12.8103 59.6636C12.8103 59.172 12.4118 58.7734 11.9202 58.7734C11.4285 58.7734 11.03 59.172 11.03 59.6636C11.03 60.1552 11.4285 60.5538 11.9202 60.5538Z" stroke="#0F1214" stroke-miterlimit="10"/>
<path d="M8.07181 61.3819C8.56344 61.3819 8.96202 60.9834 8.96202 60.4917C8.96202 60.0001 8.56344 59.6016 8.07181 59.6016C7.58018 59.6016 7.18164 60.0001 7.18164 60.4917C7.18164 60.9834 7.58018 61.3819 8.07181 61.3819Z" stroke="#0F1214" stroke-miterlimit="10"/>
<path d="M201.528 102.459L152.308 86.2308C148.953 85.1215 147.124 81.506 148.234 78.1507L151.301 68.8518C152.411 65.4965 156.026 63.6682 159.381 64.7775L208.601 81.0061C211.957 82.1154 213.785 85.7309 212.676 89.0862L209.608 98.3851C208.506 101.74 204.883 103.569 201.528 102.459Z" stroke="#0F1214" stroke-miterlimit="10"/>
<path d="M206.043 87.9864L200.717 86.2305L197.1 97.2012L202.426 98.9571L206.043 87.9864Z" fill="#0F1214" stroke="#0F1214" stroke-miterlimit="10"/>
<path d="M197.696 85.2344L192.37 83.4785L188.753 94.4492L194.079 96.2051L197.696 85.2344Z" fill="#0F1214" stroke="#0F1214" stroke-miterlimit="10"/>
<path d="M207.298 84.5533L180.388 75.6816L180.118 76.501L207.028 85.3727L207.298 84.5533Z" stroke="#0F1214" stroke-miterlimit="10"/>
<path d="M189.348 82.4825L184.022 80.7266L180.406 91.6973L185.732 93.4532L189.348 82.4825Z" fill="#0F1214" stroke="#0F1214" stroke-miterlimit="10"/>
<path d="M23.5268 50.6179L24.9306 45.5781" stroke="#0F1214" stroke-miterlimit="10" stroke-linecap="round"/>
<path d="M23.4925 50.672L22.3079 45.3926" stroke="#0F1214" stroke-miterlimit="10" stroke-linecap="round"/>
<path d="M166.523 33.6211H54.1351C48.212 33.6211 43.4119 38.4212 43.4119 44.3443V110.238H177.247V44.3443C177.247 38.4212 172.446 33.6211 166.523 33.6211Z" fill="#F0F0F0" stroke="#0F1214" stroke-miterlimit="10"/>
<path d="M166.551 44.3594H52.7245V100.975H166.551V44.3594Z" fill="#0F1214" stroke="#0F1214" stroke-miterlimit="10"/>
<path d="M208.964 112.601H11.6737L43.2544 110.238H177.452L208.964 112.601Z" stroke="#0F1214" stroke-miterlimit="10"/>
<path d="M207.91 115.163H12.6802C12.2557 115.163 11.9133 114.82 11.9133 114.396V112.602H208.67V114.396C208.67 114.813 208.328 115.163 207.91 115.163Z" fill="#0F1214" stroke="#0F1214" stroke-miterlimit="10" stroke-linecap="round"/>
<path d="M29.9343 67.4442L12.1662 71.3613L12.3785 72.3243L30.1466 68.4072L29.9343 67.4442Z" fill="#0F1214"/>
<path d="M29.2026 64.1297L11.4344 68.0469L11.6467 69.0098L29.4149 65.0927L29.2026 64.1297Z" fill="#0F1214"/>
<path d="M30.5518 70.2665L12.7837 74.1836L12.996 75.1466L30.7641 71.2294L30.5518 70.2665Z" fill="#0F1214"/>
<path d="M31.1745 73.0809L13.4064 76.998L13.6187 77.961L31.3868 74.0439L31.1745 73.0809Z" fill="#0F1214"/>
<path d="M35.1828 90.2768L32.507 78.1406L15.0416 81.9914L17.7174 94.1276L35.1828 90.2768Z" fill="#0F1214"/>
<path d="M30.4427 20.084C30.4427 20.084 17.0764 27.1712 15.5973 40.784" stroke="#0F1214" stroke-miterlimit="10" stroke-linecap="round" stroke-dasharray="3 3"/>
<path d="M131.902 74.489H128.8V72.8867H136.915V74.489H133.813V83.6305H131.909V74.489H131.902Z" fill="#F0F0F0"/>
<path d="M137.969 82.2604L139.079 80.9525C139.845 81.6851 140.879 82.1782 141.879 82.1782C143.091 82.1782 143.755 81.6304 143.755 80.7881C143.755 79.9048 143.064 79.624 142.085 79.2063L140.612 78.5695C139.551 78.1313 138.442 77.2891 138.442 75.721C138.442 74.0091 139.955 72.6875 142.05 72.6875C143.303 72.6875 144.522 73.2079 145.365 74.057L144.385 75.269C143.701 74.687 142.975 74.3446 142.05 74.3446C141.03 74.3446 140.366 74.8239 140.366 75.6045C140.366 76.4468 141.188 76.7618 142.078 77.1247L143.529 77.7342C144.81 78.2683 145.7 79.0763 145.7 80.6306C145.7 82.3699 144.255 83.8284 141.838 83.8284C140.386 83.8284 138.99 83.2601 137.969 82.2604Z" fill="#F0F0F0"/>
<path d="M110.25 63.7852H64.9884V64.7712H110.25V63.7852Z" stroke="#F0F0F0" stroke-miterlimit="10"/>
<path d="M88.0988 67.6543H64.9884V68.6403H88.0988V67.6543Z" stroke="#F0F0F0" stroke-miterlimit="10"/>
<path d="M110.25 67.6543H90.1393V68.6403H110.25V67.6543Z" stroke="#F0F0F0" stroke-miterlimit="10"/>
<path d="M110.333 50.8496H65.1186V51.8357H110.333V50.8496Z" stroke="#F0F0F0" stroke-miterlimit="10"/>
<path d="M110.25 71.5293H64.9884V72.5153H110.25V71.5293Z" stroke="#F0F0F0" stroke-miterlimit="10"/>
<path d="M110.25 75.377H64.9884V76.363H110.25V75.377Z" stroke="#F0F0F0" stroke-miterlimit="10"/>
<path d="M76.9921 79.2266H64.9884V80.2126H76.9921V79.2266Z" stroke="#F0F0F0" stroke-miterlimit="10"/>
<path d="M90.7214 79.2676H78.7656V80.2536H90.7214V79.2676Z" stroke="#F0F0F0" stroke-miterlimit="10"/>
<path d="M110.25 79.2676H92.5496V80.2947H110.25V79.2676Z" stroke="#F0F0F0" stroke-miterlimit="10"/>
<path d="M85.6063 90.7238H66.0566C65.4678 90.7238 64.9884 90.2445 64.9884 89.6556V87.6288C64.9884 87.0399 65.4678 86.5605 66.0566 86.5605H85.6063C86.1951 86.5605 86.6745 87.0399 86.6745 87.6288V89.6556C86.6745 90.2514 86.1951 90.7238 85.6063 90.7238Z" fill="#F0F0F0" stroke="#F0F0F0" stroke-miterlimit="10"/>
<path d="M109.258 90.7238H89.7078C89.119 90.7238 88.6397 90.2445 88.6397 89.6556V87.6288C88.6397 87.0399 89.119 86.5605 89.7078 86.5605H109.258C109.846 86.5605 110.326 87.0399 110.326 87.6288V89.6556C110.333 90.2514 109.853 90.7238 109.258 90.7238Z" fill="#F0F0F0" stroke="#F0F0F0" stroke-miterlimit="10"/>
<path d="M195.331 60.5937H147.898C143.153 60.5937 139.304 56.7454 139.304 52V24.7675C139.304 20.0221 143.153 16.1738 147.898 16.1738H195.331C200.076 16.1738 203.924 20.0221 203.924 24.7675V52C203.924 56.7454 200.076 60.5937 195.331 60.5937Z" fill="#F0F0F0" stroke="#0F1214" stroke-miterlimit="10"/>
<path d="M139.441 23.207H203.924" stroke="#0F1214" stroke-miterlimit="10"/>
<path d="M155.293 20.6534C155.785 20.6534 156.184 20.2548 156.184 19.7632C156.184 19.2716 155.785 18.873 155.293 18.873C154.802 18.873 154.403 19.2716 154.403 19.7632C154.403 20.2548 154.802 20.6534 155.293 20.6534Z" stroke="#0F1214" stroke-miterlimit="10"/>
<path d="M151.356 20.6534C151.848 20.6534 152.246 20.2548 152.246 19.7632C152.246 19.2716 151.848 18.873 151.356 18.873C150.864 18.873 150.466 19.2716 150.466 19.7632C150.466 20.2548 150.864 20.6534 151.356 20.6534Z" stroke="#0F1214" stroke-miterlimit="10"/>
<path d="M147.412 20.6534C147.904 20.6534 148.302 20.2548 148.302 19.7632C148.302 19.2716 147.904 18.873 147.412 18.873C146.92 18.873 146.522 19.2716 146.522 19.7632C146.522 20.2548 146.92 20.6534 147.412 20.6534Z" stroke="#0F1214" stroke-miterlimit="10"/>
<path d="M151.835 30.4375V51.3156" stroke="#0F1214" stroke-miterlimit="10"/>
<path d="M151.493 51.2891H190.182" stroke="#0F1214" stroke-miterlimit="10"/>
<path d="M151.835 29.6973L150.466 33.8674" stroke="#0F1214" stroke-miterlimit="10" stroke-linecap="round"/>
<path d="M151.835 29.6973L153.253 33.8674" stroke="#0F1214" stroke-miterlimit="10" stroke-linecap="round"/>
<path d="M191.195 51.267L187.032 49.8906" stroke="#0F1214" stroke-miterlimit="10" stroke-linecap="round"/>
<path d="M191.195 51.2676L187.032 52.685" stroke="#0F1214" stroke-miterlimit="10" stroke-linecap="round"/>
<path d="M151.835 51.3165C153.876 48.3858 158.416 39.6963 160.436 39.799C162.456 39.8949 162.654 42.0655 163.839 43.8459C165.024 45.6194 168.728 39.0526 170.837 35.1632C175.822 25.9602 176.171 41.3055 176.678 43.0173C178.287 48.4474 189.113 39.0458 189.113 39.0458" stroke="#0F1214" stroke-miterlimit="10" stroke-linecap="round"/>
<path d="M86.2841 31.7803C72.8561 16.0584 22.6844 10.6968 23.6294 47.331" stroke="#0F1214" stroke-miterlimit="10" stroke-dasharray="3 3"/>
<path d="M103.581 1.05469V33.6215" stroke="#0F1214" stroke-miterlimit="10" stroke-linecap="square"/>
<path d="M111.141 1.05469V33.6215" stroke="#0F1214" stroke-miterlimit="10" stroke-linecap="square"/>
<path d="M118.7 1.05469V33.6215" stroke="#0F1214" stroke-miterlimit="10" stroke-linecap="square"/>
<path d="M126.26 1.05469V33.6215" stroke="#0F1214" stroke-miterlimit="10" stroke-linecap="square"/>
<path d="M133.826 1.05469V33.6215" stroke="#0F1214" stroke-miterlimit="10" stroke-linecap="square"/>
<path d="M141.386 1.05469V18.8719" stroke="#0F1214" stroke-miterlimit="10" stroke-linecap="square"/>
<path d="M148.946 1.05469V16.1672" stroke="#0F1214" stroke-miterlimit="10" stroke-linecap="square"/>
<path d="M156.505 2.27344V16.167" stroke="#0F1214" stroke-miterlimit="10" stroke-linecap="round"/>
<path d="M96.0282 8.60742H160.539" stroke="#0F1214" stroke-miterlimit="10" stroke-linecap="square"/>
<path d="M96.0282 16.168H160.539" stroke="#0F1214" stroke-miterlimit="10" stroke-linecap="square"/>
<path d="M96.0282 23.7207H139.298" stroke="#0F1214" stroke-miterlimit="10" stroke-linecap="square"/>
<path d="M96.0282 31.2793H139.298" stroke="#0F1214" stroke-miterlimit="10" stroke-linecap="square"/>
<path d="M126.26 8.60742H118.7V16.1671H126.26V8.60742Z" fill="#0F1214" stroke="#0F1214" stroke-miterlimit="10" stroke-linecap="square"/>
<path d="M110.949 16.168H103.581V23.5359H110.949V16.168Z" fill="#0F1214" stroke="#0F1214" stroke-miterlimit="10" stroke-linecap="square"/>
<path d="M133.546 16.168H126.548V23.5975H133.546V16.168Z" fill="#0F1214" stroke="#0F1214" stroke-miterlimit="10" stroke-linecap="square"/>
<path d="M148.946 1.05469H141.694V8.61437H148.946V1.05469Z" fill="#0F1214" stroke="#0F1214" stroke-miterlimit="10" stroke-linecap="square"/>
<path d="M118.7 31.2793H111.141V33.2856H118.7V31.2793Z" fill="#0F1214" stroke="#0F1214" stroke-miterlimit="10" stroke-linecap="square"/>
</svg>
